<?xml version="1.0" encoding="UTF-8" standalone="no"?><svg xmlns="http://www.w3.org/2000/svg" xmlns:xlink="http://www.w3.org/1999/xlink" contentScriptType="application/ecmascript" contentStyleType="text/css" height="1086px" preserveAspectRatio="none" style="width:1813px;height:1086px;" version="1.1" viewBox="0 0 1813 1086" width="1813px" zoomAndPan="magnify"><defs><filter height="300%" id="f1f13z0dp17g53" width="300%" x="-1" y="-1"><feGaussianBlur result="blurOut" stdDeviation="2.0"/><feColorMatrix in="blurOut" result="blurOut2" type="matrix" values="0 0 0 0 0 0 0 0 0 0 0 0 0 0 0 0 0 0 .4 0"/><feOffset dx="4.0" dy="4.0" in="blurOut2" result="blurOut3"/><feBlend in="SourceGraphic" in2="blurOut3" mode="normal"/></filter></defs><g><path d="M39.7803,873.9721 C45.0366,862.9393 54.7983,862.2068 61.9786,871.9126 C68.2478,858.311 80.066,858.0409 87.1056,871.1891 C94.749,859.6891 102.5248,861.5467 109.2483,872.1122 C115.3461,861.55 124.5601,861.8131 130.5667,872.205 C137.9452,861.076 145.9573,858.9969 155.6453,869.5314 C162.0348,859.5582 171.0355,859.7626 176.2969,870.6483 C182.5866,858.6148 189.995,855.1512 200.0583,866.8738 C207.6128,857.7572 216.6515,858.3095 222.7305,868.5978 C231.0692,859.853 239.3019,857.7851 245.595,870.7521 C252.2706,858.9524 263.22,857.2481 271.62,868.8331 C279.8243,857.5146 287.0818,858.2554 293.7919,870.254 C301.0689,859.2683 309.1216,861.4854 315.5331,871.1646 C323.0789,861.7041 331.1761,860.8986 338.2218,871.724 C350.7273,858.5478 360.0748,859.7377 367,877 C369.3951,876.5863 369.8899,877.7619 369.5949,879.8219 C387.6367,887.5005 387.0159,902.3973 371.5837,912.1361 C385.1451,921.3165 386.8557,932.9179 371.9826,942.4722 C388.5199,951.8231 385.9764,966.0903 370.6716,974.1223 C382.2176,988.9331 381.426,1004.2776 360,1009 C362.7995,1008.4916 363.6897,1010.2901 363.0402,1012.6525 C354.6338,1024.2259 345.474,1022.6497 338.3774,1011.2466 C332.6763,1023.7691 324.9619,1023.9251 315.7915,1014.8797 C308.1301,1027.1016 298.7173,1025.25 291.1672,1014.759 C285.5332,1024.5785 277.6839,1027.7124 269.7334,1017.2012 C263.8462,1030.3838 254.114,1028.6085 246.2161,1019.304 C239.0887,1030.5146 230.9658,1028.5225 223.8687,1019.2708 C219.3469,1030.6916 209.8364,1032.6156 201.6078,1023.2383 C191.5726,1035.5141 184.1766,1031.6704 176.7159,1020.5045 C170.6296,1030.9715 161.0329,1028.4093 156.0797,1019.3094 C148.54,1030.2838 139.2545,1028.7344 132.2123,1018.7429 C122.9802,1026.3844 115.5983,1024.8925 110.0186,1014.2979 C103.0637,1024.8187 95.2693,1026.0541 87.4346,1015.2286 C78.4574,1027.9857 69.2467,1024.7039 61.6627,1013.7166 C47.865,1023.5319 33.5749,1019.8105 30,1002 C32.0993,1001.5321 33.0274,1002.6119 32.3154,1004.6244 C18.0625,994.0232 16.9129,983.1224 30.9108,971.3294 C15.75,965.2521 15.1468,952.0881 28.8808,943.8744 C13.0416,934.4268 12.5508,920.0835 30.2187,912.0443 C15.0994,894.6182 12.9397,881.1068 37,870 C39.8158,869.7158 41.149,871.3273 39.7803,873.9721 " fill="#FFFFFF" style="stroke: #000000; stroke-width: 1.5;"/><!--cluster Demo LDS Server (Windows Server, AD, LDS, IIS)--><polygon fill="#FFFFFF" filter="url(#f1f13z0dp17g53)" points="408,34,418,24,1791,24,1791,588,1781,598,408,598,408,34" style="stroke: #000000; stroke-width: 1.5;"/><line style="stroke: #000000; stroke-width: 1.5;" x1="1781" x2="1790" y1="34" y2="25"/><line style="stroke: #000000; stroke-width: 1.5;" x1="408" x2="1781" y1="34" y2="34"/><line style="stroke: #000000; stroke-width: 1.5;" x1="1781" x2="1781" y1="34" y2="598"/><text fill="#000000" font-family="sans-serif" font-size="24" font-weight="bold" lengthAdjust="spacingAndGlyphs" textLength="658" x="766.5" y="65.2773">Demo LDS Server (Windows Server, AD, LDS, IIS)</text><!--cluster DP Web Access Components--><polygon fill="#FFFFFF" filter="url(#f1f13z0dp17g53)" points="432,95,829,95,836,140.9375,839,140.9375,839,399,432,399,432,95" style="stroke: #000000; stroke-width: 1.5;"/><line style="stroke: #000000; stroke-width: 1.5;" x1="432" x2="836" y1="140.9375" y2="140.9375"/><text fill="#000000" font-family="sans-serif" font-size="24" font-weight="bold" lengthAdjust="spacingAndGlyphs" textLength="379" x="442" y="125.2773">DP Web Access Components</text><!--cluster Demo Web Server--><polygon fill="#FFFFFF" filter="url(#f1f13z0dp17g53)" points="462,632,472,622,1325,622,1325,997,1315,1007,462,1007,462,632" style="stroke: #000000; stroke-width: 1.5;"/><line style="stroke: #000000; stroke-width: 1.5;" x1="1315" x2="1324" y1="632" y2="623"/><line style="stroke: #000000; stroke-width: 1.5;" x1="462" x2="1315" y1="632" y2="632"/><line style="stroke: #000000; stroke-width: 1.5;" x1="1315" x2="1315" y1="632" y2="1007"/><text fill="#000000" font-family="sans-serif" font-size="24" font-weight="bold" lengthAdjust="spacingAndGlyphs" textLength="241" x="769" y="663.2773">Demo Web Server</text><!--cluster Web Access Sample--><polygon fill="#FFFFFF" filter="url(#f1f13z0dp17g53)" points="1008,693,1291,693,1298,738.9375,1301,738.9375,1301,983,1008,983,1008,693" style="stroke: #000000; stroke-width: 1.5;"/><line style="stroke: #000000; stroke-width: 1.5;" x1="1008" x2="1298" y1="738.9375" y2="738.9375"/><text fill="#000000" font-family="sans-serif" font-size="24" font-weight="bold" lengthAdjust="spacingAndGlyphs" textLength="265" x="1018" y="723.2773">Web Access Sample</text><path d="M1585.8481,902.4682 C1590.3109,892.9904 1595.6076,893.5459 1602.2195,900.3007 C1606.8623,894.0324 1611.6693,895.1277 1615.8621,900.8144 C1621.0715,891.9239 1627.4008,891.4586 1634.1135,899.1607 C1638.239,892.6082 1643.4529,892.2697 1648.6783,897.8392 C1653.0711,891.9167 1658.8259,890.6205 1663.3358,897.7074 C1667.3184,887.653 1674.11,887.3093 1680.4855,895.4523 C1685.5312,889.6262 1690.6801,889.9573 1695.0357,896.2788 C1700.4166,889.0557 1706.7315,889.6872 1710.5887,897.8219 C1716.1,888.8978 1722.3134,891.4589 1727.2875,898.3877 C1731.958,892.1161 1739.6036,891.362 1742.5691,900.1211 C1747.333,892.2575 1754.6539,893.0586 1758.199,901.3036 C1767.7258,894.0077 1775.2014,894.7461 1779.5,907 C1781.1539,906.5729 1781.9428,907.7699 1781.4173,909.2228 C1786.7971,914.0524 1786.815,918.3788 1780.0994,921.9567 C1785.5757,925.4807 1786.7144,931.622 1780.1631,935.2039 C1786.8748,939.5509 1786.6208,944.8813 1780.3157,949.3687 C1786.6323,953.0435 1788.6427,959.4883 1780.9827,963.8087 C1787.2889,967.4731 1788.8648,973.8924 1781.4169,977.9783 C1788.8162,981.5056 1790.0286,987.7627 1782.4549,992.3699 C1788.7302,997.7696 1789.7014,1002.9516 1781.6145,1007.5566 C1788.8507,1011.4519 1789.4257,1016.2565 1782.3328,1020.9219 C1787.8658,1024.8168 1786.9259,1030.2654 1781.5562,1033.4865 C1789.8787,1044.7921 1785.8153,1052.247 1772.5,1054 C1773.8622,1053.3885 1774.8815,1053.8999 1774.9311,1055.4657 C1771.1932,1065.129 1763.6866,1065.1303 1758.1102,1057.226 C1753.9214,1064.6803 1749.0178,1067.7066 1742.1726,1060.0227 C1738.0098,1067.733 1733.0546,1068.6673 1727.3175,1061.6058 C1723.5085,1068.8829 1715.4006,1069.7993 1710.5405,1062.8451 C1707.7591,1071.2691 1701.2653,1071.2041 1696.0932,1065.2469 C1691.9339,1072.4435 1687.3258,1074.5317 1680.9972,1067.5579 C1675.1098,1074.4909 1666.7147,1073.5952 1662.953,1065.0758 C1658.1906,1071.666 1651.936,1069.9301 1648.5308,1063.565 C1643.0799,1069.0825 1637.2157,1069.0462 1633.4194,1061.6315 C1628.0567,1068.3907 1621.3404,1066.6276 1618.5526,1058.9753 C1613.4204,1065.6893 1606.9823,1067.2812 1602.5161,1058.295 C1589.4392,1068.8879 1579.7106,1060.4738 1577.5,1047 C1577.8197,1046.588 1578.1998,1046.7097 1578.3488,1047.1667 C1572.8728,1043.1942 1572.7291,1038.9939 1578.2893,1034.9675 C1569.8457,1031.2763 1570.1695,1025.4239 1576.7631,1020.1807 C1569.6178,1016.8172 1569.0342,1010.674 1574.4396,1005.3449 C1568.2042,1000.7279 1569.3404,996.8586 1574.6331,992.4141 C1567.0378,988.7529 1566.427,983.4066 1573.6469,978.6815 C1567.0201,974.4491 1565.6853,970.0275 1572.3814,964.5979 C1566.7874,959.7474 1567.1744,954.0907 1574.5927,951.4245 C1568.6289,946.3884 1568.0141,940.1492 1576.3396,936.8227 C1569.1676,930.8909 1570.2651,924.8225 1578.8816,921.512 C1571.5166,912.7516 1571.7442,903.5054 1584.5,900 C1586.2242,899.9862 1586.6424,901.1064 1585.8481,902.4682 " fill="#FFFFFF" style="stroke: #000000; stroke-width: 1.5;"/><!--entity User--><ellipse cx="71" cy="903.5" fill="#FEFECE" filter="url(#f1f13z0dp17g53)" rx="8" ry="8" style="stroke: #A80036; stroke-width: 2.0;"/><path d="M71,911.5 L71,938.5 M58,919.5 L84,919.5 M71,938.5 L58,953.5 M71,938.5 L84,953.5 " fill="none" filter="url(#f1f13z0dp17g53)" style="stroke: #A80036; stroke-width: 2.0;"/><text fill="#000000" font-family="sans-serif" font-size="24" lengthAdjust="spacingAndGlyphs" textLength="54" x="44" y="988.7773">User</text><!--entity Browser--><rect fill="#FEFECE" filter="url(#f1f13z0dp17g53)" height="59.9375" style="stroke: #A80036; stroke-width: 1.5;" width="128" x="231" y="902"/><text fill="#000000" font-family="sans-serif" font-size="24" lengthAdjust="spacingAndGlyphs" textLength="96" x="247" y="940.2773">Browser</text><!--entity lds--><ellipse cx="635" cy="573" fill="#FEFECE" filter="url(#f1f13z0dp17g53)" rx="8" ry="8" style="stroke: #A80036; stroke-width: 2.0;"/><text fill="#000000" font-family="sans-serif" font-size="24" lengthAdjust="spacingAndGlyphs" textLength="252" x="509" y="618.2773">https://lds.domain.tld</text><!--entity IIS--><rect fill="#FFFF00" filter="url(#f1f13z0dp17g53)" height="69.9375" style="stroke: #A80036; stroke-width: 1.5;" width="376" x="447" y="459"/><rect fill="#FFFF00" height="10" style="stroke: #A80036; stroke-width: 1.5;" width="15" x="803" y="464"/><rect fill="#FFFF00" height="2" style="stroke: #A80036; stroke-width: 1.5;" width="4" x="801" y="466"/><rect fill="#FFFF00" height="2" style="stroke: #A80036; stroke-width: 1.5;" width="4" x="801" y="470"/><text fill="#000000" font-family="sans-serif" font-size="24" lengthAdjust="spacingAndGlyphs" textLength="324" x="468" y="507.2773">Internet Information Server</text><!--entity DPHost--><rect fill="#FEFECE" filter="url(#f1f13z0dp17g53)" height="69.9375" style="stroke: #A80036; stroke-width: 1.5;" width="224" x="1042.5" y="442"/><rect fill="#FEFECE" height="10" style="stroke: #A80036; stroke-width: 1.5;" width="15" x="1246.5" y="447"/><rect fill="#FEFECE" height="2" style="stroke: #A80036; stroke-width: 1.5;" width="4" x="1244.5" y="449"/><rect fill="#FEFECE" height="2" style="stroke: #A80036; stroke-width: 1.5;" width="4" x="1244.5" y="453"/><text fill="#000000" font-family="sans-serif" font-size="24" lengthAdjust="spacingAndGlyphs" textLength="172" x="1063.5" y="490.2773">DP LDS Server</text><!--entity LDS--><path d="M1582,452.5 C1582,442.5 1678.5,442.5 1678.5,442.5 C1678.5,442.5 1775,442.5 1775,452.5 L1775,501.4375 C1775,511.4375 1678.5,511.4375 1678.5,511.4375 C1678.5,511.4375 1582,511.4375 1582,501.4375 L1582,452.5 " fill="#FEFECE" filter="url(#f1f13z0dp17g53)" style="stroke: #000000; stroke-width: 1.5;"/><path d="M1582,452.5 C1582,462.5 1678.5,462.5 1678.5,462.5 C1678.5,462.5 1775,462.5 1775,452.5 " fill="none" style="stroke: #000000; stroke-width: 1.5;"/><text fill="#000000" font-family="sans-serif" font-size="24" lengthAdjust="spacingAndGlyphs" textLength="161" x="1598" y="494.7773">Windows LDS</text><!--entity WAC--><rect fill="#FEFECE" filter="url(#f1f13z0dp17g53)" height="229.6875" style="stroke: #A80036; stroke-width: 1.5;" width="224" x="523" y="153"/><rect fill="#FEFECE" height="10" style="stroke: #A80036; stroke-width: 1.5;" width="15" x="727" y="158"/><rect fill="#FEFECE" height="2" style="stroke: #A80036; stroke-width: 1.5;" width="4" x="725" y="160"/><rect fill="#FEFECE" height="2" style="stroke: #A80036; stroke-width: 1.5;" width="4" x="725" y="164"/><text fill="#000000" font-family="sans-serif" font-size="24" lengthAdjust="spacingAndGlyphs" textLength="140" x="544" y="201.2773">DPWebAuth</text><text fill="#000000" font-family="sans-serif" font-size="24" lengthAdjust="spacingAndGlyphs" textLength="151" x="544" y="241.2148">DPWebEnroll</text><text fill="#000000" font-family="sans-serif" font-size="24" lengthAdjust="spacingAndGlyphs" textLength="172" x="544" y="281.1523">DPWebPolicies</text><text fill="#000000" font-family="sans-serif" font-size="24" lengthAdjust="spacingAndGlyphs" textLength="165" x="544" y="321.0898">DPWebClaims</text><text fill="#000000" font-family="sans-serif" font-size="24" lengthAdjust="spacingAndGlyphs" textLength="172" x="544" y="361.0273">DPWebSecrets</text><!--entity demo--><ellipse cx="635" cy="932" fill="#FEFECE" filter="url(#f1f13z0dp17g53)" rx="8" ry="8" style="stroke: #A80036; stroke-width: 2.0;"/><text fill="#000000" font-family="sans-serif" font-size="24" lengthAdjust="spacingAndGlyphs" textLength="286" x="492" y="977.2773">https://demo.domain.tld</text><!--entity Sample--><rect fill="#FEFECE" filter="url(#f1f13z0dp17g53)" height="69.9375" style="stroke: #A80036; stroke-width: 1.5;" width="193" x="1058" y="751"/><rect fill="#FEFECE" height="10" style="stroke: #A80036; stroke-width: 1.5;" width="15" x="1231" y="756"/><rect fill="#FEFECE" height="2" style="stroke: #A80036; stroke-width: 1.5;" width="4" x="1229" y="758"/><rect fill="#FEFECE" height="2" style="stroke: #A80036; stroke-width: 1.5;" width="4" x="1229" y="762"/><text fill="#000000" font-family="sans-serif" font-size="24" lengthAdjust="spacingAndGlyphs" textLength="141" x="1079" y="799.2773">Sample Site</text><!--entity DemoServer--><rect fill="#FFFF00" filter="url(#f1f13z0dp17g53)" height="69.9375" style="stroke: #A80036; stroke-width: 1.5;" width="221" x="1044" y="897"/><rect fill="#FFFF00" height="10" style="stroke: #A80036; stroke-width: 1.5;" width="15" x="1245" y="902"/><rect fill="#FFFF00" height="2" style="stroke: #A80036; stroke-width: 1.5;" width="4" x="1243" y="904"/><rect fill="#FFFF00" height="2" style="stroke: #A80036; stroke-width: 1.5;" width="4" x="1243" y="908"/><text fill="#000000" font-family="sans-serif" font-size="24" lengthAdjust="spacingAndGlyphs" textLength="169" x="1065" y="945.2773">NodeJS Server</text><!--entity smtp--><ellipse cx="1678.5" cy="932" fill="#FEFECE" filter="url(#f1f13z0dp17g53)" rx="8" ry="8" style="stroke: #A80036; stroke-width: 2.0;"/><text fill="#000000" font-family="sans-serif" font-size="24" lengthAdjust="spacingAndGlyphs" textLength="195" x="1581" y="977.2773">smtp.domain.tld</text><!--entity Mail Server--><rect fill="#FEFECE" filter="url(#f1f13z0dp17g53)" height="69.9375" style="stroke: #A80036; stroke-width: 1.5;" width="186" x="1585.5" y="976"/><rect fill="#FEFECE" height="10" style="stroke: #A80036; stroke-width: 1.5;" width="15" x="1751.5" y="981"/><rect fill="#FEFECE" height="2" style="stroke: #A80036; stroke-width: 1.5;" width="4" x="1749.5" y="983"/><rect fill="#FEFECE" height="2" style="stroke: #A80036; stroke-width: 1.5;" width="4" x="1749.5" y="987"/><text fill="#000000" font-family="sans-serif" font-size="24" lengthAdjust="spacingAndGlyphs" textLength="134" x="1606.5" y="1024.2773">Mail Server</text><!--link User to Browser--><path d="M104.2807,944.819 C135.93,942.68 185.171,939.353 225.556,936.625 " fill="none" id="User-Browser" style="stroke: #A80036; stroke-width: 1.0;"/><polygon fill="#A80036" points="230.939,936.261,221.6898,932.877,225.9504,936.5981,222.2292,940.8588,230.939,936.261" style="stroke: #A80036; stroke-width: 1.0;"/><text fill="#000000" font-family="sans-serif" font-size="24" lengthAdjust="spacingAndGlyphs" textLength="53" x="141" y="926.2773">uses</text><!--link lds to IIS--><path d="M635,563.742 C635,552.209 635,540.676 635,529.144 " fill="none" id="lds-IIS" style="stroke: #A80036; stroke-width: 1.0;"/><!--link IIS to WAC--><path d="M635,458.688 C635,439.367 635,414.175 635,388.465 " fill="none" id="IIS-WAC" style="stroke: #A80036; stroke-width: 1.0;"/><polygon fill="#A80036" points="635,383.317,631,392.317,635,388.317,639,392.317,635,383.317" style="stroke: #A80036; stroke-width: 1.0;"/><text fill="#000000" font-family="sans-serif" font-size="24" lengthAdjust="spacingAndGlyphs" textLength="62" x="580.5" y="429.7773">hosts</text><!--link WAC to DPHost--><path d="M747.017,312.836 C840.966,350.779 973.993,404.504 1061.95,440.024 " fill="none" id="WAC-DPHost" style="stroke: #A80036; stroke-width: 1.0;"/><polygon fill="#A80036" points="1066.62,441.913,1059.7718,434.8347,1061.9836,440.0413,1056.777,442.2531,1066.62,441.913" style="stroke: #A80036; stroke-width: 1.0;"/><text fill="#000000" font-family="sans-serif" font-size="24" lengthAdjust="spacingAndGlyphs" textLength="53" x="908" y="367.2773">uses</text><!--link DPHost to LDS--><path d="M1266.52,477 C1358.39,477 1487.78,477 1576.7,477 " fill="none" id="DPHost-LDS" style="stroke: #A80036; stroke-width: 1.0;"/><polygon fill="#A80036" points="1581.97,477,1572.97,473,1576.97,477,1572.97,481,1581.97,477" style="stroke: #A80036; stroke-width: 1.0;"/><text fill="#000000" font-family="sans-serif" font-size="24" lengthAdjust="spacingAndGlyphs" textLength="131" x="1381" y="465.2773">stores data</text><!--link Browser to lds--><path d="M300.104,901.808 C308.916,848.101 334.456,735.385 400,669 C464.985,603.181 581.452,580.681 620.685,574.775 " fill="none" id="Browser-lds" style="stroke: #A80036; stroke-width: 1.0;"/><polygon fill="#A80036" points="625.898,574.02,616.4174,571.3521,620.9497,574.7371,617.5647,579.2694,625.898,574.02" style="stroke: #A80036; stroke-width: 1.0;"/><!--link demo to DemoServer--><path d="M644.129,932 C688.877,932 908.113,932 1043.97,932 " fill="none" id="demo-DemoServer" style="stroke: #A80036; stroke-width: 1.0;"/><!--link DemoServer to Sample--><path d="M1154.5,896.657 C1154.5,875.406 1154.5,848.292 1154.5,826.222 " fill="none" id="DemoServer-Sample" style="stroke: #A80036; stroke-width: 1.0;"/><polygon fill="#A80036" points="1154.5,821.017,1150.5,830.017,1154.5,826.017,1158.5,830.017,1154.5,821.017" style="stroke: #A80036; stroke-width: 1.0;"/><text fill="#000000" font-family="sans-serif" font-size="24" lengthAdjust="spacingAndGlyphs" textLength="62" x="1100" y="867.7773">hosts</text><!--link Browser to demo--><path d="M364.239,932 C446.345,932 578.427,932 620.601,932 " fill="none" id="Browser-demo" style="stroke: #A80036; stroke-width: 1.0;"/><polygon fill="#A80036" points="625.726,932,616.726,928,620.726,932,616.726,936,625.726,932" style="stroke: #A80036; stroke-width: 1.0;"/><polygon fill="#A80036" points="359.179,932,368.179,936,364.179,932,368.179,928,359.179,932" style="stroke: #A80036; stroke-width: 1.0;"/><!--link smtp to Mail Server--><path d="M1678.5,941.243 C1678.5,952.769 1678.5,964.295 1678.5,975.82 " fill="none" id="smtp-Mail Server" style="stroke: #A80036; stroke-width: 1.0;"/><!--link DPHost to smtp--><path d="M1196.03,512.324 C1305.26,607.534 1601.82,866.031 1665.4,921.449 " fill="none" id="DPHost-smtp" style="stroke: #A80036; stroke-width: 1.0;"/><polygon fill="#A80036" points="1669.24,924.802,1665.085,915.8725,1665.4713,921.5162,1659.8276,921.9025,1669.24,924.802" style="stroke: #A80036; stroke-width: 1.0;"/><text fill="#000000" font-family="sans-serif" font-size="24" lengthAdjust="spacingAndGlyphs" textLength="197" x="1348" y="631.2773">verification, OTP</text><!--link DemoServer to smtp--><path d="M1265.25,932 C1397.66,932 1609.38,932 1664.2,932 " fill="none" id="DemoServer-smtp" style="stroke: #A80036; stroke-width: 1.0;"/><polygon fill="#A80036" points="1669.28,932,1660.28,928,1664.28,932,1660.28,936,1669.28,932" style="stroke: #A80036; stroke-width: 1.0;"/><text fill="#000000" font-family="sans-serif" font-size="24" lengthAdjust="spacingAndGlyphs" textLength="132" x="1380.5" y="920.2773">notification</text><!--link Mail Server to User--><path d="M1585.38,1026.0459 C1481.31,1041.715 1306.71,1064 1155.5,1064 C294,1064 294,1064 294,1064 C221.618,1064 149.683,1014.7215 108.101,980.1267 " fill="none" id="Mail Server-User" style="stroke: #A80036; stroke-width: 1.0;"/><polygon fill="#A80036" points="104.1728,976.827,108.4916,985.6784,108.0014,980.0429,113.637,979.5527,104.1728,976.827" style="stroke: #A80036; stroke-width: 1.0;"/><text fill="#000000" font-family="sans-serif" font-size="24" lengthAdjust="spacingAndGlyphs" textLength="74" x="598" y="1052.2773">e-mail</text><!--
@startuml
skinparam ComponentStyle uml2
skinparam defaultFontSize 24
skinparam padding 6


left to right direction

cloud {
    actor User
    agent Browser
}

User - -> Browser : uses

node "Demo LDS Server (Windows Server, AD, LDS, IIS)" {
    interface "https://lds.domain.tld" as lds
    package "DP Web Access Components" {
        component "DPWebAuth\nDPWebEnroll\nDPWebPolicies\nDPWebClaims\nDPWebSecrets" as WAC
    }
    component "Internet Information Server" as IIS #yellow
    component "DP LDS Server" as DPHost
    database " Windows LDS" as LDS
    lds - IIS
    IIS -> WAC : hosts
    WAC - -> DPHost : uses
    DPHost - -> LDS : stores data
    [Browser] - -> lds
}

node "Demo Web Server" {
    interface "https://demo.domain.tld" as demo
    package "Web Access Sample" {
        component "Sample Site" as Sample
        component "NodeJS Server" as DemoServer #Yellow
    }
    demo - - DemoServer
    DemoServer -> Sample : hosts
    Browser <- -> demo
}

cloud {
    interface "smtp.domain.tld" as smtp
    smtp - [Mail Server]
    DPHost - -> smtp : verification, OTP
    DemoServer - -> smtp : notification
}

[Mail Server] - -> User : e-mail
@enduml

PlantUML version 1.2019.08(Sat Jul 13 19:25:14 UTC 2019)
(GPL source distribution)
Java Runtime: Java(TM) SE Runtime Environment
JVM: Java HotSpot(TM) 64-Bit Server VM
Java Version: 1.7.0_25-b15
Operating System: Linux
Default Encoding: UTF-8
Language: en
Country: US
--></g></svg>