<?xml version="1.0" encoding="UTF-8" standalone="no"?>
<!DOCTYPE svg PUBLIC "-//W3C//DTD SVG 1.1//EN"
 "http://www.w3.org/Graphics/SVG/1.1/DTD/svg11.dtd">
<!-- Generated by graphviz version 2.38.0 (20140413.2041)
 -->
<!-- Title: %3 Pages: 1 -->
<svg width="667pt" height="338pt"
 viewBox="0.00 0.00 667.00 338.00" xmlns="http://www.w3.org/2000/svg" xmlns:xlink="http://www.w3.org/1999/xlink">
<g id="graph0" class="graph" transform="scale(1 1) rotate(0) translate(4 334)">
<title>%3</title>
<polygon fill="white" stroke="none" points="-4,4 -4,-334 663,-334 663,4 -4,4"/>
<g id="clust1" class="cluster"><title>cluster_LDS</title>
<polygon fill="none" stroke="gray" stroke-dasharray="5,2" points="109,-191 109,-322 651,-322 651,-191 109,-191"/>
<text text-anchor="middle" x="255.5" y="-310" font-family="Lucida Console" font-size="10.00">Demo LDS Server (Windows Server, AD, LDS, IIS)</text>
</g>
<g id="clust2" class="cluster"><title>cluster_WEB</title>
<polygon fill="none" stroke="gray" stroke-dasharray="5,2" points="112,-8 112,-83 342,-83 342,-8 112,-8"/>
<text text-anchor="middle" x="192.5" y="-71" font-family="Lucida Console" font-size="10.00">Demo Web Server (NodeJS)</text>
</g>
<!-- lds_instance -->
<g id="node1" class="node"><title>lds_instance</title>
<polygon fill="none" stroke="lightgray" points="506,-229 506,-265 643,-265 643,-229 506,-229"/>
<text text-anchor="middle" x="574.5" y="-244.5" font-family="Lucida Console" font-size="10.00">Windows LDS instance</text>
</g>
<!-- lds_server -->
<g id="node2" class="node"><title>lds_server</title>
<polygon fill="none" stroke="lightgray" points="374,-229 374,-265 469,-265 469,-229 374,-229"/>
<text text-anchor="middle" x="421.5" y="-244.5" font-family="Lucida Console" font-size="10.00">DP LDS Server</text>
</g>
<!-- lds_server&#45;&gt;lds_instance -->
<g id="edge4" class="edge"><title>lds_server&#45;&gt;lds_instance</title>
<path fill="none" stroke="#8888ff" d="M469.037,-247C477.474,-247 486.479,-247 495.532,-247"/>
<polygon fill="#8888ff" stroke="#8888ff" points="495.745,-250.5 505.745,-247 495.745,-243.5 495.745,-250.5"/>
</g>
<!-- lds_web -->
<g id="node3" class="node"><title>lds_web</title>
<polygon fill="none" stroke="lightgray" points="117,-199.5 117,-294.5 337,-294.5 337,-199.5 117,-199.5"/>
<text text-anchor="middle" x="179.5" y="-244.5" font-family="Lucida Console" font-size="10.00">lds.domain.tld:443</text>
<polyline fill="none" stroke="lightgray" points="242,-199.5 242,-294.5 "/>
<text text-anchor="middle" x="289.5" y="-282.5" font-family="Lucida Console" font-size="10.00">DPWebAuth</text>
<polyline fill="none" stroke="lightgray" points="242,-275.5 337,-275.5 "/>
<text text-anchor="middle" x="289.5" y="-263.5" font-family="Lucida Console" font-size="10.00">DPWebEnroll</text>
<polyline fill="none" stroke="lightgray" points="242,-256.5 337,-256.5 "/>
<text text-anchor="middle" x="289.5" y="-244.5" font-family="Lucida Console" font-size="10.00">DPWebPolicies</text>
<polyline fill="none" stroke="lightgray" points="242,-237.5 337,-237.5 "/>
<text text-anchor="middle" x="289.5" y="-225.5" font-family="Lucida Console" font-size="10.00">DPWebClaims</text>
<polyline fill="none" stroke="lightgray" points="242,-218.5 337,-218.5 "/>
<text text-anchor="middle" x="289.5" y="-206.5" font-family="Lucida Console" font-size="10.00">DPWebSecret</text>
</g>
<!-- lds_web&#45;&gt;lds_server -->
<g id="edge3" class="edge"><title>lds_web&#45;&gt;lds_server</title>
<path fill="none" stroke="#8888ff" d="M337.186,-247C346.356,-247 355.367,-247 363.877,-247"/>
<polygon fill="#8888ff" stroke="#8888ff" points="363.986,-250.5 373.986,-247 363.985,-243.5 363.986,-250.5"/>
</g>
<!-- bank -->
<g id="node4" class="node"><title>bank</title>
<polygon fill="none" stroke="lightgray" points="120,-17 120,-55 334,-55 334,-17 120,-17"/>
<text text-anchor="middle" x="185.5" y="-33.5" font-family="Lucida Console" font-size="10.00">bank.domain.tld:443</text>
<polyline fill="none" stroke="lightgray" points="251,-17 251,-55 "/>
<text text-anchor="middle" x="292.5" y="-43" font-family="Lucida Console" font-size="10.00">NodeJS</text>
<polyline fill="none" stroke="lightgray" points="251,-36 334,-36 "/>
<text text-anchor="middle" x="292.5" y="-24" font-family="Lucida Console" font-size="10.00">out/public/</text>
</g>
<!-- bank&#45;&gt;lds_web -->
<g id="edge5" class="edge"><title>bank:nodejs&#45;&gt;lds_web:confirm</title>
<path fill="none" stroke="#8888ff" d="M177.743,-188.988C170.327,-160.224 133.226,-149.36 151,-121.5 188.43,-62.8276 293,-125.095 293,-55.5"/>
<polygon fill="#8888ff" stroke="#8888ff" points="174.281,-189.514 179,-199 181.227,-188.642 174.281,-189.514"/>
<text text-anchor="middle" x="161" y="-124.5" font-family="Arial" font-size="10.00" fill="darkblue">https</text>
</g>
<!-- Browser -->
<g id="node5" class="node"><title>Browser</title>
<polygon fill="none" stroke="lightgray" points="59,-174 56,-178 35,-178 32,-174 0,-174 0,-138 59,-138 59,-174"/>
<text text-anchor="middle" x="29.5" y="-153.5" font-family="Lucida Console" font-size="10.00">Browser</text>
</g>
<!-- Browser&#45;&gt;lds_web -->
<g id="edge1" class="edge"><title>Browser&#45;&gt;lds_web</title>
<path fill="none" stroke="#8888ff" d="M59.3467,-169.427C74.5204,-176.49 94.201,-185.651 114.692,-195.189"/>
<polygon fill="#8888ff" stroke="#8888ff" points="113.287,-198.396 123.83,-199.443 116.241,-192.05 113.287,-198.396"/>
<text text-anchor="middle" x="88" y="-188" font-family="Arial" font-size="10.00" fill="darkblue">https</text>
</g>
<!-- Browser&#45;&gt;bank -->
<g id="edge2" class="edge"><title>Browser&#45;&gt;bank</title>
<path fill="none" stroke="#8888ff" d="M59.3467,-138.294C92.8776,-117.712 148.417,-83.6213 186.077,-60.5052"/>
<polygon fill="#8888ff" stroke="#8888ff" points="188.077,-63.3841 194.769,-55.1699 184.416,-57.4183 188.077,-63.3841"/>
<text text-anchor="middle" x="88" y="-130" font-family="Arial" font-size="10.00" fill="darkblue">https</text>
</g>
</g>
</svg>
