<?xml version="1.0" encoding="UTF-8" standalone="no"?><svg xmlns="http://www.w3.org/2000/svg" xmlns:xlink="http://www.w3.org/1999/xlink" contentScriptType="application/ecmascript" contentStyleType="text/css" height="1025px" preserveAspectRatio="none" style="width:1351px;height:1025px;" version="1.1" viewBox="0 0 1351 1025" width="1351px" zoomAndPan="magnify"><defs><filter height="300%" id="fm0pg1icqfl4s" width="300%" x="-1" y="-1"><feGaussianBlur result="blurOut" stdDeviation="2.0"/><feColorMatrix in="blurOut" result="blurOut2" type="matrix" values="0 0 0 0 0 0 0 0 0 0 0 0 0 0 0 0 0 0 .4 0"/><feOffset dx="4.0" dy="4.0" in="blurOut2" result="blurOut3"/><feBlend in="SourceGraphic" in2="blurOut3" mode="normal"/></filter></defs><g><path d="M39.4406,813.2806 C45.6848,806.327 51.6413,804.2549 57.3118,813.8984 C62.9447,803.5529 69.2259,804.1683 76.3425,812.3766 C80.8155,803.0042 87.8699,803.0738 93.9224,810.7476 C99.1106,798.3084 106.0306,798.8802 115.29,806.3861 C119.9994,799.2026 127.8036,799.4049 131.501,807.4625 C136.6929,796.1849 143.4676,795.0838 152.5491,803.2525 C157.3623,795.6497 164.9007,795.0996 170.2294,802.6511 C177.2339,793.4202 184.5664,794.7713 189.3679,804.8362 C196.1255,798.2378 203.7562,797.5887 207.7414,807.8564 C213.2923,799.0937 222.6094,800.4461 227.304,808.8332 C232.4869,800.5328 240.6484,800.6328 244.3228,810.2648 C251.4257,798.7099 258.9184,800.1483 265.6244,810.6481 C272.4104,802.5371 277.8211,802.3909 283.4257,811.8454 C295.2894,802.2895 301.7407,806.7943 307,819 C309.0202,819.4727 309.3579,820.6282 307.971,822.1508 C319.8958,826.1169 320.7264,835.2159 311.3537,842.6896 C322.5443,847.6472 324.8036,854.1618 316.9708,864.1084 C328.3589,869.6367 327.5089,876.2047 320.3105,884.7414 C328.345,893.6568 327.6373,901.325 315.7416,905.9461 C325.2702,915.173 326.5351,923.3545 313.0227,929.9741 C320.8792,942.7985 314.0408,953.5703 300,955 C302.5886,954.755 304.0263,955.889 303.3273,958.645 C295.5014,968.0751 289.3382,966.452 283.7785,956.3741 C278.4897,965.9379 271.5106,965.6128 265.7956,956.791 C261.316,968.461 252.2741,969.9045 244.7782,959.6876 C240.7027,968.2335 232.1667,967.1547 227.5936,960.2407 C219.6004,969.3304 212.2441,970.4617 206.3974,958.118 C201.3713,965.9075 195.7652,967.6648 188.9836,960.1104 C182.7988,968.8877 177.01,968.6248 171.5097,959.4443 C165.8162,968.8745 156.0999,970.3523 150.5405,959.307 C144.0743,966.9822 137.737,967.6253 132.9037,957.6733 C126.9688,966.0673 120.8468,966.6427 115.4517,957.1468 C111.1099,968.3528 101.2784,967.0117 95.4442,958.6746 C90.0939,968.5785 81.0503,966.9206 76.7399,957.6596 C71.0669,968.1271 63.7587,968.486 56.7174,959.0352 C44.0794,969.0939 31.7019,964.4187 30,948 C31.6269,947.0612 33.0731,947.9546 33.0328,949.8097 C21.8095,944.4529 22.0177,936.7823 30.74,929.206 C21.5853,924.1399 18.3889,915.1281 28.6817,908.1601 C16.8488,903.7516 15.9098,893.6893 26.4377,886.9185 C16.7623,878.7588 16.9065,870.7537 27.2883,863.3168 C18.0531,856.1272 18.2748,847.5173 27.7028,840.6693 C16.2525,828.9273 21.1922,814.9024 37,812 C38.2901,811.1834 39.387,811.7407 39.4406,813.2806 " fill="#FFFFFF" style="stroke: #000000; stroke-width: 1.5;"/><!--cluster Demo LDS Server (Windows Server, AD, LDS, IIS)--><polygon fill="#FFFFFF" filter="url(#fm0pg1icqfl4s)" points="347.5,34,357.5,24,1329.5,24,1329.5,555,1319.5,565,347.5,565,347.5,34" style="stroke: #000000; stroke-width: 1.5;"/><line style="stroke: #000000; stroke-width: 1.5;" x1="1319.5" x2="1328.5" y1="34" y2="25"/><line style="stroke: #000000; stroke-width: 1.5;" x1="347.5" x2="1319.5" y1="34" y2="34"/><line style="stroke: #000000; stroke-width: 1.5;" x1="1319.5" x2="1319.5" y1="34" y2="565"/><text fill="#000000" font-family="sans-serif" font-size="14" font-weight="bold" lengthAdjust="spacingAndGlyphs" textLength="385" x="642" y="59.9951">Demo LDS Server (Windows Server, AD, LDS, IIS)</text><!--cluster DP Web Access Components--><polygon fill="#FFFFFF" filter="url(#fm0pg1icqfl4s)" points="371.5,92,625.5,92,632.5,134.2969,635.5,134.2969,635.5,375,371.5,375,371.5,92" style="stroke: #000000; stroke-width: 1.5;"/><line style="stroke: #000000; stroke-width: 1.5;" x1="371.5" x2="632.5" y1="134.2969" y2="134.2969"/><text fill="#000000" font-family="sans-serif" font-size="14" font-weight="bold" lengthAdjust="spacingAndGlyphs" textLength="228" x="385.5" y="116.9951">DP Web Access Components</text><!--cluster Demo Web Server--><polygon fill="#FFFFFF" filter="url(#fm0pg1icqfl4s)" points="386.5,599,396.5,589,1008,589,1008,946,998,956,386.5,956,386.5,599" style="stroke: #000000; stroke-width: 1.5;"/><line style="stroke: #000000; stroke-width: 1.5;" x1="998" x2="1007" y1="599" y2="590"/><line style="stroke: #000000; stroke-width: 1.5;" x1="386.5" x2="998" y1="599" y2="599"/><line style="stroke: #000000; stroke-width: 1.5;" x1="998" x2="998" y1="599" y2="956"/><text fill="#000000" font-family="sans-serif" font-size="14" font-weight="bold" lengthAdjust="spacingAndGlyphs" textLength="143" x="621.75" y="624.9951">Demo Web Server</text><!--cluster Web Access Sample--><polygon fill="#FFFFFF" filter="url(#fm0pg1icqfl4s)" points="789,657,974,657,981,699.2969,984,699.2969,984,932,789,932,789,657" style="stroke: #000000; stroke-width: 1.5;"/><line style="stroke: #000000; stroke-width: 1.5;" x1="789" x2="981" y1="699.2969" y2="699.2969"/><text fill="#000000" font-family="sans-serif" font-size="14" font-weight="bold" lengthAdjust="spacingAndGlyphs" textLength="159" x="803" y="681.9951">Web Access Sample</text><path d="M1180.1018,844.9847 C1182.7298,840.2976 1186.4779,839.1559 1190.4451,843.441 C1192.6343,837.0024 1197.0957,836.4164 1201.7274,840.9233 C1204.3537,835.5284 1208.3006,834.4437 1213.023,838.3883 C1217.1538,831.5566 1222.426,832.9514 1226.1446,838.8143 C1228.4942,833.7103 1231.3055,831.6539 1236.1335,836.2663 C1238.6857,830.8715 1242.6268,830.3668 1247.0335,834.0363 C1251.5505,828.8496 1257.3104,831.1273 1258.9505,837.1067 C1262.1135,831.4012 1266.9598,831.4296 1270.0952,837.1336 C1274.8044,830.8005 1280.4917,833.4028 1283.1494,839.3199 C1286.8106,835.263 1291.0052,836.1923 1293.3637,840.8473 C1297.3218,835.9029 1301.9487,837.794 1304.2565,842.6766 C1313.6614,836.5357 1320.0324,838.1212 1322,850 C1323.3085,850.4506 1323.3539,851.1619 1322.6095,852.1851 C1328.2068,854.8931 1328.5719,860.2719 1323.4349,863.7462 C1328.5416,867.4307 1329.4941,871.0257 1323.7021,874.9697 C1329.0736,877.4511 1330.9474,882.5559 1325.2774,886.5405 C1331.6467,890.0929 1331.7778,894.9032 1325.3861,898.5709 C1332.2086,901.3465 1333.1251,907.0316 1326.9815,911.4173 C1332.8355,914.0851 1333.038,919.9392 1328.2698,923.7193 C1333.2073,927.8627 1333.4737,932.9573 1326.7386,935.596 C1331.062,939.1597 1329.9061,944.0451 1324.9603,946.0289 C1330.1844,949.0347 1330.5224,954.4556 1325.9014,958.2213 C1331.4033,962.6692 1330.6291,967.2005 1324.7417,970.5796 C1329.5248,974.9198 1328.9957,979.8107 1323.0271,982.6198 C1328.7198,991.0817 1327.0159,1000.2718 1315,1001 C1315.6845,1000.5255 1316.2552,1000.7353 1316.3666,1001.5894 C1313.5294,1006.7255 1309.5901,1007.2328 1305.3276,1003.3301 C1301.7363,1008.5691 1296.0774,1008.6897 1292.9217,1002.8427 C1290.1463,1008.5175 1284.7801,1009.1818 1281.2481,1003.6293 C1278.971,1008.2062 1275.0614,1009.101 1271.6808,1004.8215 C1269.3542,1011.5001 1263.2989,1012.3222 1258.7743,1007.232 C1255.4194,1012.6242 1252.1595,1012.5133 1248.1159,1007.971 C1243.381,1013.1182 1238.5139,1011.6428 1236.1339,1005.4769 C1232.7538,1010.1755 1228.9486,1010.1447 1225.7911,1005.2372 C1221.9258,1010.4654 1217.0308,1010.0374 1214.496,1003.9134 C1210.6469,1010.057 1206.1972,1010.629 1202.282,1003.9765 C1198.3336,1009.4004 1193.2561,1007.7489 1191.0696,1002.1795 C1182.0944,1009.0578 1173.2667,1005.0932 1172,994 C1173.7117,993.6697 1174.289,994.2941 1173.8889,995.9792 C1166.4084,992.8292 1166.5821,986.0681 1173.2233,982.2342 C1168.3545,979.1051 1167.606,976.023 1172.427,972.1302 C1165.7485,968.8844 1166.7046,964.0221 1171.329,959.7721 C1166.4681,954.781 1165.073,950.1516 1172.8052,946.5685 C1167.0082,942.7211 1165.7322,938.5935 1172.2373,934.1821 C1166.4355,930.8139 1167.6737,927.2513 1171.8693,923.5375 C1164.3654,920.1979 1165.8131,914.4886 1170.9199,910.2481 C1165.8415,906.8639 1165.7458,901.2832 1171.0398,898.0005 C1165.9611,894.4387 1167.1232,889.6972 1172.0877,887.101 C1167.2588,883.7519 1165.5113,878.9338 1171.7794,875.2949 C1165.5077,870.8971 1165.523,865.4848 1172.9486,862.3215 C1164.8388,854.1055 1168.6133,845.423 1179,843 C1180.2188,843.2 1180.6426,843.8079 1180.1018,844.9847 " fill="#FFFFFF" style="stroke: #000000; stroke-width: 1.5;"/><!--entity User--><ellipse cx="64" cy="853.5" fill="#FEFECE" filter="url(#fm0pg1icqfl4s)" rx="8" ry="8" style="stroke: #A80036; stroke-width: 2.0;"/><path d="M64,861.5 L64,888.5 M51,869.5 L77,869.5 M64,888.5 L51,903.5 M64,888.5 L77,903.5 " fill="none" filter="url(#fm0pg1icqfl4s)" style="stroke: #A80036; stroke-width: 2.0;"/><text fill="#000000" font-family="sans-serif" font-size="14" lengthAdjust="spacingAndGlyphs" textLength="32" x="48" y="933.4951">User</text><!--entity Browser--><rect fill="#FEFECE" filter="url(#fm0pg1icqfl4s)" height="56.2969" style="stroke: #A80036; stroke-width: 1.5;" width="97" x="202" y="855"/><text fill="#000000" font-family="sans-serif" font-size="14" lengthAdjust="spacingAndGlyphs" textLength="57" x="222" y="887.9951">Browser</text><!--entity lds--><ellipse cx="503.5" cy="540" fill="#FEFECE" filter="url(#fm0pg1icqfl4s)" rx="8" ry="8" style="stroke: #A80036; stroke-width: 2.0;"/><text fill="#000000" font-family="sans-serif" font-size="14" lengthAdjust="spacingAndGlyphs" textLength="147" x="430" y="579.9951">https://lds.domain.tld</text><!--entity IIS--><rect fill="#FFFF00" filter="url(#fm0pg1icqfl4s)" height="66.2969" style="stroke: #A80036; stroke-width: 1.5;" width="243" x="382" y="430"/><rect fill="#FFFF00" height="10" style="stroke: #A80036; stroke-width: 1.5;" width="15" x="605" y="435"/><rect fill="#FFFF00" height="2" style="stroke: #A80036; stroke-width: 1.5;" width="4" x="603" y="437"/><rect fill="#FFFF00" height="2" style="stroke: #A80036; stroke-width: 1.5;" width="4" x="603" y="441"/><text fill="#000000" font-family="sans-serif" font-size="14" lengthAdjust="spacingAndGlyphs" textLength="183" x="407" y="472.9951">Internet Information Server</text><!--entity DPHost--><rect fill="#FEFECE" filter="url(#fm0pg1icqfl4s)" height="66.2969" style="stroke: #A80036; stroke-width: 1.5;" width="159" x="807" y="416"/><rect fill="#FEFECE" height="10" style="stroke: #A80036; stroke-width: 1.5;" width="15" x="946" y="421"/><rect fill="#FEFECE" height="2" style="stroke: #A80036; stroke-width: 1.5;" width="4" x="944" y="423"/><rect fill="#FEFECE" height="2" style="stroke: #A80036; stroke-width: 1.5;" width="4" x="944" y="427"/><text fill="#000000" font-family="sans-serif" font-size="14" lengthAdjust="spacingAndGlyphs" textLength="99" x="832" y="458.9951">DP LDS Server</text><!--entity LDS--><path d="M1180.5,426.5 C1180.5,416.5 1247,416.5 1247,416.5 C1247,416.5 1313.5,416.5 1313.5,426.5 L1313.5,471.7969 C1313.5,481.7969 1247,481.7969 1247,481.7969 C1247,481.7969 1180.5,481.7969 1180.5,471.7969 L1180.5,426.5 " fill="#FEFECE" filter="url(#fm0pg1icqfl4s)" style="stroke: #000000; stroke-width: 1.5;"/><path d="M1180.5,426.5 C1180.5,436.5 1247,436.5 1247,436.5 C1247,436.5 1313.5,436.5 1313.5,426.5 " fill="none" style="stroke: #000000; stroke-width: 1.5;"/><text fill="#000000" font-family="sans-serif" font-size="14" lengthAdjust="spacingAndGlyphs" textLength="93" x="1200.5" y="463.4951">Windows LDS</text><!--entity WAC--><rect fill="#FEFECE" filter="url(#fm0pg1icqfl4s)" height="211.4844" style="stroke: #A80036; stroke-width: 1.5;" width="164" x="421.5" y="147.5"/><rect fill="#FEFECE" height="10" style="stroke: #A80036; stroke-width: 1.5;" width="15" x="565.5" y="152.5"/><rect fill="#FEFECE" height="2" style="stroke: #A80036; stroke-width: 1.5;" width="4" x="563.5" y="154.5"/><rect fill="#FEFECE" height="2" style="stroke: #A80036; stroke-width: 1.5;" width="4" x="563.5" y="158.5"/><text fill="#000000" font-family="sans-serif" font-size="14" lengthAdjust="spacingAndGlyphs" textLength="83" x="446.5" y="190.4951">DPWebAuth</text><text fill="#000000" font-family="sans-serif" font-size="14" lengthAdjust="spacingAndGlyphs" textLength="89" x="446.5" y="226.792">DPWebEnroll</text><text fill="#000000" font-family="sans-serif" font-size="14" lengthAdjust="spacingAndGlyphs" textLength="103" x="446.5" y="263.0889">DPWebPolicies</text><text fill="#000000" font-family="sans-serif" font-size="14" lengthAdjust="spacingAndGlyphs" textLength="96" x="446.5" y="299.3857">DPWebClaims</text><text fill="#000000" font-family="sans-serif" font-size="14" lengthAdjust="spacingAndGlyphs" textLength="104" x="446.5" y="335.6826">DPWebSecrets</text><!--entity demo--><ellipse cx="503.5" cy="883" fill="#FEFECE" filter="url(#fm0pg1icqfl4s)" rx="8" ry="8" style="stroke: #A80036; stroke-width: 2.0;"/><text fill="#000000" font-family="sans-serif" font-size="14" lengthAdjust="spacingAndGlyphs" textLength="167" x="420" y="922.9951">https://demo.domain.tld</text><!--entity Sample--><rect fill="#FEFECE" filter="url(#fm0pg1icqfl4s)" height="66.2969" style="stroke: #A80036; stroke-width: 1.5;" width="141" x="816" y="712"/><rect fill="#FEFECE" height="10" style="stroke: #A80036; stroke-width: 1.5;" width="15" x="937" y="717"/><rect fill="#FEFECE" height="2" style="stroke: #A80036; stroke-width: 1.5;" width="4" x="935" y="719"/><rect fill="#FEFECE" height="2" style="stroke: #A80036; stroke-width: 1.5;" width="4" x="935" y="723"/><text fill="#000000" font-family="sans-serif" font-size="14" lengthAdjust="spacingAndGlyphs" textLength="81" x="841" y="754.9951">Sample Site</text><!--entity DemoServer--><rect fill="#FFFF00" filter="url(#fm0pg1icqfl4s)" height="66.2969" style="stroke: #A80036; stroke-width: 1.5;" width="157" x="808" y="850"/><rect fill="#FFFF00" height="10" style="stroke: #A80036; stroke-width: 1.5;" width="15" x="945" y="855"/><rect fill="#FFFF00" height="2" style="stroke: #A80036; stroke-width: 1.5;" width="4" x="943" y="857"/><rect fill="#FFFF00" height="2" style="stroke: #A80036; stroke-width: 1.5;" width="4" x="943" y="861"/><text fill="#000000" font-family="sans-serif" font-size="14" lengthAdjust="spacingAndGlyphs" textLength="97" x="833" y="892.9951">NodeJS Server</text><!--entity smtp--><ellipse cx="1247" cy="883" fill="#FEFECE" filter="url(#fm0pg1icqfl4s)" rx="8" ry="8" style="stroke: #A80036; stroke-width: 2.0;"/><text fill="#000000" font-family="sans-serif" font-size="14" lengthAdjust="spacingAndGlyphs" textLength="111" x="1191.5" y="922.9951">smtp.domain.tld</text><!--entity Mail Server--><rect fill="#FEFECE" filter="url(#fm0pg1icqfl4s)" height="66.2969" style="stroke: #A80036; stroke-width: 1.5;" width="134" x="1180" y="927"/><rect fill="#FEFECE" height="10" style="stroke: #A80036; stroke-width: 1.5;" width="15" x="1294" y="932"/><rect fill="#FEFECE" height="2" style="stroke: #A80036; stroke-width: 1.5;" width="4" x="1292" y="934"/><rect fill="#FEFECE" height="2" style="stroke: #A80036; stroke-width: 1.5;" width="4" x="1292" y="938"/><text fill="#000000" font-family="sans-serif" font-size="14" lengthAdjust="spacingAndGlyphs" textLength="74" x="1205" y="969.9951">Mail Server</text><!--link User to Browser--><path d="M90.2671,893.357 C117.546,891.582 161.779,888.705 196.71,886.433 " fill="none" id="User-Browser" style="stroke: #A80036; stroke-width: 1.0;"/><polygon fill="#A80036" points="201.794,886.103,192.5535,882.6951,196.8045,886.4273,193.0723,890.6782,201.794,886.103" style="stroke: #A80036; stroke-width: 1.0;"/><text fill="#000000" font-family="sans-serif" font-size="13" lengthAdjust="spacingAndGlyphs" textLength="30" x="131" y="874.0669">uses</text><!--link lds to IIS--><path d="M503.5,530.977 C503.5,519.382 503.5,507.787 503.5,496.192 " fill="none" id="lds-IIS" style="stroke: #A80036; stroke-width: 1.0;"/><!--link IIS to WAC--><path d="M503.5,429.725 C503.5,411.585 503.5,387.975 503.5,363.949 " fill="none" id="IIS-WAC" style="stroke: #A80036; stroke-width: 1.0;"/><polygon fill="#A80036" points="503.5,358.817,499.5,367.817,503.5,363.817,507.5,367.817,503.5,358.817" style="stroke: #A80036; stroke-width: 1.0;"/><text fill="#000000" font-family="sans-serif" font-size="13" lengthAdjust="spacingAndGlyphs" textLength="35" x="464.5" y="398.8169">hosts</text><!--link WAC to DPHost--><path d="M585.767,294.807 C654.382,330.105 751.555,380.094 816.46,413.483 " fill="none" id="WAC-DPHost" style="stroke: #A80036; stroke-width: 1.0;"/><polygon fill="#A80036" points="821.076,415.858,814.9029,408.1839,816.6299,413.5706,811.2431,415.2977,821.076,415.858" style="stroke: #A80036; stroke-width: 1.0;"/><text fill="#000000" font-family="sans-serif" font-size="13" lengthAdjust="spacingAndGlyphs" textLength="30" x="708" y="343.0669">uses</text><!--link DPHost to LDS--><path d="M966.174,449 C1028.62,449 1115.15,449 1175.39,449 " fill="none" id="DPHost-LDS" style="stroke: #A80036; stroke-width: 1.0;"/><polygon fill="#A80036" points="1180.41,449,1171.41,445,1175.41,449,1171.41,453,1180.41,449" style="stroke: #A80036; stroke-width: 1.0;"/><text fill="#000000" font-family="sans-serif" font-size="13" lengthAdjust="spacingAndGlyphs" textLength="73" x="1049.5" y="435.0669">stores data</text><!--link Browser to lds--><path d="M254.92,854.708 C262.258,804.769 283.636,699.949 339.5,633 C381.727,582.394 459.002,553.694 489.565,543.88 " fill="none" id="Browser-lds" style="stroke: #A80036; stroke-width: 1.0;"/><polygon fill="#A80036" points="494.385,542.366,484.5999,541.2474,489.6149,543.8646,486.9977,548.8796,494.385,542.366" style="stroke: #A80036; stroke-width: 1.0;"/><!--link demo to DemoServer--><path d="M512.812,883 C550.791,883 710.158,883 807.78,883 " fill="none" id="demo-DemoServer" style="stroke: #A80036; stroke-width: 1.0;"/><!--link DemoServer to Sample--><path d="M886.5,849.946 C886.5,829.951 886.5,804.37 886.5,783.47 " fill="none" id="DemoServer-Sample" style="stroke: #A80036; stroke-width: 1.0;"/><polygon fill="#A80036" points="886.5,778.263,882.5,787.263,886.5,783.263,890.5,787.263,886.5,778.263" style="stroke: #A80036; stroke-width: 1.0;"/><text fill="#000000" font-family="sans-serif" font-size="13" lengthAdjust="spacingAndGlyphs" textLength="35" x="847.5" y="818.5669">hosts</text><!--link Browser to demo--><path d="M304.181,883 C363.19,883 455.038,883 489.152,883 " fill="none" id="Browser-demo" style="stroke: #A80036; stroke-width: 1.0;"/><polygon fill="#A80036" points="494.476,883,485.476,879,489.476,883,485.476,887,494.476,883" style="stroke: #A80036; stroke-width: 1.0;"/><polygon fill="#A80036" points="299.006,883,308.006,887,304.006,883,308.006,879,299.006,883" style="stroke: #A80036; stroke-width: 1.0;"/><!--link smtp to Mail Server--><path d="M1247,892.263 C1247,903.813 1247,915.364 1247,926.9141 " fill="none" id="smtp-Mail Server" style="stroke: #A80036; stroke-width: 1.0;"/><!--link DPHost to smtp--><path d="M915.036,482.335 C988.529,571.306 1187.01,811.584 1235.3,870.047 " fill="none" id="DPHost-smtp" style="stroke: #A80036; stroke-width: 1.0;"/><polygon fill="#A80036" points="1238.51,873.938,1235.8649,864.451,1235.3268,870.0822,1229.6956,869.5441,1238.51,873.938" style="stroke: #A80036; stroke-width: 1.0;"/><text fill="#000000" font-family="sans-serif" font-size="13" lengthAdjust="spacingAndGlyphs" textLength="102" x="1035" y="600.0669">verification, OTP</text><!--link DemoServer to smtp--><path d="M965.289,883 C1053.19,883 1189.62,883 1232.58,883 " fill="none" id="DemoServer-smtp" style="stroke: #A80036; stroke-width: 1.0;"/><polygon fill="#A80036" points="1237.79,883,1228.79,879,1232.79,883,1228.79,887,1237.79,883" style="stroke: #A80036; stroke-width: 1.0;"/><text fill="#000000" font-family="sans-serif" font-size="13" lengthAdjust="spacingAndGlyphs" textLength="70" x="1051" y="869.0669">notification</text><!--link Mail Server to User--><path d="M1179.97,974.5027 C1108.32,988.9516 990.365,1009 887.5,1009 C249.5,1009 249.5,1009 249.5,1009 C186.651,1009 127.323,960.5347 93.6433,926.8051 " fill="none" id="Mail Server-User" style="stroke: #A80036; stroke-width: 1.0;"/><polygon fill="#A80036" points="90.065,923.18,93.5407,932.3952,93.5775,926.7385,99.2342,926.7753,90.065,923.18" style="stroke: #A80036; stroke-width: 1.0;"/><text fill="#000000" font-family="sans-serif" font-size="13" lengthAdjust="spacingAndGlyphs" textLength="40" x="483.5" y="995.0669">e-mail</text><!--
@startuml
skinparam componentStyle uml2
skinparam padding 10
left to right direction

cloud {
    actor User
    agent Browser
}

User - -> Browser : uses

node "Demo LDS Server (Windows Server, AD, LDS, IIS)" {
    interface "https://lds.domain.tld" as lds
    package "DP Web Access Components" {
        component "DPWebAuth\nDPWebEnroll\nDPWebPolicies\nDPWebClaims\nDPWebSecrets" as WAC
    }
    component "Internet Information Server" as IIS #yellow
    component "DP LDS Server" as DPHost
    database " Windows LDS" as LDS
    lds - IIS
    IIS -> WAC : hosts
    WAC - -> DPHost : uses
    DPHost - -> LDS : stores data
    [Browser] - -> lds
}

node "Demo Web Server" {
    interface "https://demo.domain.tld" as demo
    package "Web Access Sample" {
        component "Sample Site" as Sample
        component "NodeJS Server" as DemoServer #Yellow
    }
    demo - - DemoServer
    DemoServer -> Sample : hosts
    Browser <- -> demo
}

cloud {
    interface "smtp.domain.tld" as smtp
    smtp - [Mail Server]
    DPHost - -> smtp : verification, OTP
    DemoServer - -> smtp : notification
}

[Mail Server] - -> User : e-mail
@enduml

PlantUML version 1.2019.08(Sat Jul 13 19:25:14 UTC 2019)
(GPL source distribution)
Java Runtime: Java(TM) SE Runtime Environment
JVM: Java HotSpot(TM) 64-Bit Server VM
Java Version: 1.7.0_25-b15
Operating System: Linux
Default Encoding: UTF-8
Language: en
Country: US
--></g></svg>